# xmcd
#
# Track frame offsets:
#	150
#	17381
#	33431
#	51045
#	65298
#
# Disc length: 1052 seconds
#
# Revision: 0
# Processed by: cddbd v1.5.2PL0 Copyright (c) Steve Scherf et al.
# Submitted via: EasyCDDAExtractor 2011.0.0.0
#
DISCID=32041a05
DTITLE=EverySingleDay - 구름다리
DYEAR=2017
DGENRE=Pop
TTITLE0=Yes, I'm in love
TTITLE1=나에게 기대어
TTITLE2=비밀
TTITLE3=낮잠(Feat.달샤벳 우희)
TTITLE4=피크
EXTD=
EXTT0=
EXTT1=
EXTT2=
EXTT3=
EXTT4=
PLAYORDER=
